HIERARCHY
ROOT Hips
{
  OFFSET 1.53123 91.784 0.210406
  CHANNELS 6 Xposition Yposition Zposition Zrotation Xrotation Yrotation
  JOINT Spine
  {
    OFFSET 0 9.9235 -1.2273
    CHANNELS 6 Xposition Yposition Zposition Zrotation Xrotation Yrotation
    JOINT Spine1
    {
      OFFSET -0.0001 11.6454 -1.4223
      CHANNELS 6 Xposition Yposition Zposition Zrotation Xrotation Yrotation
      JOINT Spine2
      {
        OFFSET 0.0001 13.3602 -1.6265
        CHANNELS 6 Xposition Yposition Zposition Zrotation Xrotation Yrotation
        JOINT Neck
        {
          OFFSET 0 15.0325 0.7929
          CHANNELS 6 Xposition Yposition Zposition Zrotation Xrotation Yrotation
          JOINT Head
          {
            OFFSET 0 10.3218 3.1424
            CHANNELS 6 Xposition Yposition Zposition Zrotation Xrotation Yrotation
            JOINT HeadTop_End
            {
              OFFSET 0.0002 18.4747 6.6364
              CHANNELS 6 Xposition Yposition Zposition Zrotation Xrotation Yrotation
              End Site
              {
                OFFSET 0 0 0
              }
            }
            JOINT LeftEye
            {
              OFFSET 2.9479 7.6817 9.1207
              CHANNELS 6 Xposition Yposition Zposition Zrotation Xrotation Yrotation
              End Site
              {
                OFFSET 0 0 0
              }
            }
            JOINT RightEye
            {
              OFFSET -2.9445 7.6817 9.1205
              CHANNELS 6 Xposition Yposition Zposition Zrotation Xrotation Yrotation
              End Site
              {
                OFFSET 0 0 0
              }
            }
          }
        }
        JOINT LeftShoulder
        {
          OFFSET 6.1058 9.1104 0.7056
          CHANNELS 6 Xposition Yposition Zposition Zrotation Xrotation Yrotation
          JOINT LeftArm
          {
            OFFSET 12.655 -0.2659 -2.6009
            CHANNELS 6 Xposition Yposition Zposition Zrotation Xrotation Yrotation
            JOINT LeftForeArm
            {
              OFFSET 27.4047 0 0
              CHANNELS 6 Xposition Yposition Zposition Zrotation Xrotation Yrotation
              JOINT LeftHand
              {
                OFFSET 27.6145 0 0
                CHANNELS 6 Xposition Yposition Zposition Zrotation Xrotation Yrotation
                JOINT LeftHandMiddle1
                {
                  OFFSET 12.7755 0 0
                  CHANNELS 6 Xposition Yposition Zposition Zrotation Xrotation Yrotation
                  JOINT LeftHandMiddle2
                  {
                    OFFSET 3.614 0 0
                    CHANNELS 6 Xposition Yposition Zposition Zrotation Xrotation Yrotation
                    JOINT LeftHandMiddle3
                    {
                      OFFSET 3.4598 0 0
                      CHANNELS 6 Xposition Yposition Zposition Zrotation Xrotation Yrotation
                      End Site
                      {
                        OFFSET 3.6802 0 0
                      }
                    }
                  }
                }
                JOINT LeftHandThumb1
                {
                  OFFSET 3.7888 -2.167 3.0031
                  CHANNELS 6 Xposition Yposition Zposition Zrotation Xrotation Yrotation
                  JOINT LeftHandThumb2
                  {
                    OFFSET 3.6754 -2.122 2.122
                    CHANNELS 6 Xposition Yposition Zposition Zrotation Xrotation Yrotation
                    JOINT LeftHandThumb3
                    {
                      OFFSET 3.3944 -1.9597 1.9598
                      CHANNELS 6 Xposition Yposition Zposition Zrotation Xrotation Yrotation
                      End Site
                      {
                        OFFSET 2.6794 -1.5469 1.5469
                      }
                    }
                  }
                }
                JOINT LeftHandIndex1
                {
                  OFFSET 12.2666 -0.2317 2.8221
                  CHANNELS 6 Xposition Yposition Zposition Zrotation Xrotation Yrotation
                  JOINT LeftHandIndex2
                  {
                    OFFSET 3.892 0 0
                    CHANNELS 6 Xposition Yposition Zposition Zrotation Xrotation Yrotation
                    JOINT LeftHandIndex3
                    {
                      OFFSET 3.4152 0 0
                      CHANNELS 6 Xposition Yposition Zposition Zrotation Xrotation Yrotation
                      End Site
                      {
                        OFFSET 3.078 0 0
                      }
                    }
                  }
                }
                JOINT LeftHandRing1
                {
                  OFFSET 12.147 0.0099 -2.2166
                  CHANNELS 6 Xposition Yposition Zposition Zrotation Xrotation Yrotation
                  JOINT LeftHandRing2
                  {
                    OFFSET 3.6012 0 0
                    CHANNELS 6 Xposition Yposition Zposition Zrotation Xrotation Yrotation
                    JOINT LeftHandRing3
                    {
                      OFFSET 3.3073 0 0
                      CHANNELS 6 Xposition Yposition Zposition Zrotation Xrotation Yrotation
                      End Site
                      {
                        OFFSET 3.6601 0 0
                      }
                    }
                  }
                }
                JOINT LeftHandPinky1
                {
                  OFFSET 10.9082 -0.2264 -4.7258
                  CHANNELS 6 Xposition Yposition Zposition Zrotation Xrotation Yrotation
                  JOINT LeftHandPinky2
                  {
                    OFFSET 4.1367 0 0
                    CHANNELS 6 Xposition Yposition Zposition Zrotation Xrotation Yrotation
                    JOINT LeftHandPinky3
                    {
                      OFFSET 2.5948 0 0
                      CHANNELS 6 Xposition Yposition Zposition Zrotation Xrotation Yrotation
                      End Site
                      {
                        OFFSET 2.9239 0 0
                      }
                    }
                  }
                }
              }
            }
          }
        }
        JOINT RightShoulder
        {
          OFFSET -6.1057 9.1105 0.7056
          CHANNELS 6 Xposition Yposition Zposition Zrotation Xrotation Yrotation
          JOINT RightArm
          {
            OFFSET -12.655 -0.266 -2.6009
            CHANNELS 6 Xposition Yposition Zposition Zrotation Xrotation Yrotation
            JOINT RightForeArm
            {
              OFFSET -27.4047 0 0
              CHANNELS 6 Xposition Yposition Zposition Zrotation Xrotation Yrotation
              JOINT RightHand
              {
                OFFSET -27.6145 0 0
                CHANNELS 6 Xposition Yposition Zposition Zrotation Xrotation Yrotation
                JOINT RightHandMiddle1
                {
                  OFFSET -12.7755 0 0
                  CHANNELS 6 Xposition Yposition Zposition Zrotation Xrotation Yrotation
                  JOINT RightHandMiddle2
                  {
                    OFFSET -3.614 0 0
                    CHANNELS 6 Xposition Yposition Zposition Zrotation Xrotation Yrotation
                    JOINT RightHandMiddle3
                    {
                      OFFSET -3.4598 0 0
                      CHANNELS 6 Xposition Yposition Zposition Zrotation Xrotation Yrotation
                      End Site
                      {
                        OFFSET -3.6802 0 0
                      }
                    }
                  }
                }
                JOINT RightHandThumb1
                {
                  OFFSET -3.7888 -2.167 3.0031
                  CHANNELS 6 Xposition Yposition Zposition Zrotation Xrotation Yrotation
                  JOINT RightHandThumb2
                  {
                    OFFSET -3.6754 -2.122 2.122
                    CHANNELS 6 Xposition Yposition Zposition Zrotation Xrotation Yrotation
                    JOINT RightHandThumb3
                    {
                      OFFSET -3.3944 -1.9597 1.9598
                      CHANNELS 6 Xposition Yposition Zposition Zrotation Xrotation Yrotation
                      End Site
                      {
                        OFFSET -2.6794 -1.5469 1.5469
                      }
                    }
                  }
                }
                JOINT RightHandIndex1
                {
                  OFFSET -12.2666 -0.2317 2.8221
                  CHANNELS 6 Xposition Yposition Zposition Zrotation Xrotation Yrotation
                  JOINT RightHandIndex2
                  {
                    OFFSET -3.892 0 0
                    CHANNELS 6 Xposition Yposition Zposition Zrotation Xrotation Yrotation
                    JOINT RightHandIndex3
                    {
                      OFFSET -3.4152 0 0
                      CHANNELS 6 Xposition Yposition Zposition Zrotation Xrotation Yrotation
                      End Site
                      {
                        OFFSET -3.078 0 0
                      }
                    }
                  }
                }
                JOINT RightHandRing1
                {
                  OFFSET -12.147 0.0099 -2.2166
                  CHANNELS 6 Xposition Yposition Zposition Zrotation Xrotation Yrotation
                  JOINT RightHandRing2
                  {
                    OFFSET -3.6012 0 0
                    CHANNELS 6 Xposition Yposition Zposition Zrotation Xrotation Yrotation
                    JOINT RightHandRing3
                    {
                      OFFSET -3.3073 0 0
                      CHANNELS 6 Xposition Yposition Zposition Zrotation Xrotation Yrotation
                      End Site
                      {
                        OFFSET -3.6601 0 0
                      }
                    }
                  }
                }
                JOINT RightHandPinky1
                {
                  OFFSET -10.9082 -0.2264 -4.7258
                  CHANNELS 6 Xposition Yposition Zposition Zrotation Xrotation Yrotation
                  JOINT RightHandPinky2
                  {
                    OFFSET -4.1367 0 0
                    CHANNELS 6 Xposition Yposition Zposition Zrotation Xrotation Yrotation
                    JOINT RightHandPinky3
                    {
                      OFFSET -2.5948 0 0
                      CHANNELS 6 Xposition Yposition Zposition Zrotation Xrotation Yrotation
                      End Site
                      {
                        OFFSET -2.9239 0 0
                      }
                    }
                  }
                }
              }
            }
          }
        }
      }
    }
  }
  JOINT RightUpLeg
  {
    OFFSET -9.1245 -6.6564 -0.0554
    CHANNELS 6 Xposition Yposition Zposition Zrotation Xrotation Yrotation
    JOINT RightLeg
    {
      OFFSET -0.2447 -40.5954 -0.5145
      CHANNELS 6 Xposition Yposition Zposition Zrotation Xrotation Yrotation
      JOINT RightFoot
      {
        OFFSET 0.2447 -42.0479 -2.0602
        CHANNELS 6 Xposition Yposition Zposition Zrotation Xrotation Yrotation
        JOINT RightToeBase
        {
          OFFSET -0.3734 -10.4922 12.6407
          CHANNELS 6 Xposition Yposition Zposition Zrotation Xrotation Yrotation
          End Site
          {
            OFFSET 0 0 9.9925
          }
        }
      }
    }
  }
  JOINT LeftUpLeg
  {
    OFFSET 9.1245 -6.6564 -0.0554
    CHANNELS 6 Xposition Yposition Zposition Zrotation Xrotation Yrotation
    JOINT LeftLeg
    {
      OFFSET 0.2447 -40.5954 -0.517
      CHANNELS 6 Xposition Yposition Zposition Zrotation Xrotation Yrotation
      JOINT LeftFoot
      {
        OFFSET -0.2447 -42.048 -2.0576
        CHANNELS 6 Xposition Yposition Zposition Zrotation Xrotation Yrotation
        JOINT LeftToeBase
        {
          OFFSET 0.3734 -10.4922 12.6407
          CHANNELS 6 Xposition Yposition Zposition Zrotation Xrotation Yrotation
          End Site
          {
            OFFSET 0 0 9.9925
          }
        }
      }
    }
  }
}
MOTION
Frames:	4
Frame Time:	0.0166667
1.53123 91.784 0.210406 1.97749 11.5248 -2.1774 8.88178e-016 9.9235 -1.2273 1.23139 3.00743 0.705143 -0.0001 11.6454 -1.4223 0.886831 6.19767 1.62132 0.0001 13.3602 -1.6265 0.881569 6.19342 1.64006 -3.55271e-015 15.0325 0.7929 -1.79205 -3.61906 -1.14889 1.77636e-015 10.3218 3.1424 -7.14444 -11.1022 -0.891543 0.0002 18.4747 6.6364 9.93923e-017 1.59028e-015 -0 2.9479 7.6817 9.1207 9.93923e-017 1.59028e-015 -0 -2.9445 7.6817 9.1205 9.93923e-017 1.59028e-015 -0 6.1058 9.1104 0.7056 -11.5379 0.197608 2.52091 12.655 -0.2659 -2.6009 -37.6145 42.9781 -49.665 27.4047 7.10543e-015 3.55271e-015 1.48154e-006 -5.17218e-006 -11.749 27.6145 0 0 -5.19194 -13.6802 -4.40359 12.7755 0 0 0.0159763 -9.03612e-007 -0.00192795 3.614 0 0 -0.0160092 1.08658e-005 0.00194314 3.4598 -3.55271e-015 0 -1.92623e-006 -1.30386e-005 1.46072e-005 3.7888 -2.167 3.0031 17.3887 3.38498 5.98719 3.6754 -2.122 2.122 1.59356 5.61382 21.0817 3.3944 -1.9597 1.9598 3.14971 0.475236 8.1848 12.2666 -0.2317 2.8221 -3.66684e-006 2.95452e-006 9.49118e-006 3.892 -3.55271e-015 3.55271e-015 -3.69419e-005 -2.23093e-006 -8.42047e-006 3.4152 0 0 -2.16977e-006 -3.06123e-006 3.64063e-006 12.147 0.0099 -2.2166 -3.66684e-006 2.95452e-006 9.49118e-006 3.6012 3.55271e-015 -1.77636e-015 -3.24844e-005 -7.71645e-006 6.05701e-006 3.3073 3.55271e-015 -1.77636e-015 -2.09109e-006 2.07194e-006 4.8136e-006 10.9082 -0.2264 -4.7258 0.509568 0.0180318 4.05429 4.1367 0 0 -0.509594 0.0180344 -4.05428 2.5948 0 1.77636e-015 -1.60766e-006 -3.95716e-007 3.02371e-006 -6.1057 9.1105 0.7056 9.96325 0.280205 -1.8869 -12.655 -0.266 -2.6009 -6.45445 32.4859 92.4327 -27.4047 0 -8.88178e-016 1.52588e-005 6.86903e-015 96.8127 -27.6145 0 1.42109e-014 25.5387 -36.4005 -1.55395 -12.7755 0 0 30.3361 -0.956511 -3.52738 -3.614 -3.55271e-015 0 22.0435 -0.510462 -2.62038 -3.4598 3.55271e-015 -1.42109e-014 11.0246 -0.12883 -1.3348 -3.7888 -2.167 3.0031 -12.6474 -9.88241 -3.99696 -3.6754 -2.122 2.122 -3.47198 -1.14869 -26.5434 -3.3944 -1.9597 1.9598 -3.52349 -4.09633 -9.09948 -12.2666 -0.2317 2.8221 30.3361 -0.956511 -3.52738 -3.892 -3.55271e-015 0 22.0435 -0.510462 -2.62038 -3.4152 3.55271e-015 -1.42109e-014 11.0246 -0.12883 -1.3348 -12.147 0.0099 -2.2166 30.3361 -0.956511 -3.52738 -3.6012 0 1.42109e-014 22.0435 -0.510462 -2.62038 -3.3073 3.55271e-015 0 11.0246 -0.12883 -1.3348 -10.9082 -0.2264 -4.7258 30.3361 -0.956511 -3.52738 -4.1367 -3.55271e-015 0 22.0435 -0.510462 -2.62038 -2.5948 -3.55271e-015 1.42109e-014 11.0246 -0.12883 -1.3348 -9.1245 -6.6564 -0.0554 -6.37709 0.895692 -14.6125 -0.2447 -40.5954 -0.5145 0.608635 32.0107 9.12172 0.2447 -42.0479 -2.0602 -6.01845 -4.34257 1.82765 -0.3734 -10.4922 12.6407 5.08406 -36.5799 2.58773 9.1245 -6.6564 -0.0554 -4.60649 -50.1796 0.0392168 0.2447 -40.5954 -0.517 0.543323 26.425 8.08603 -0.2447 -42.048 -2.0576 4.84037 -8.33662 1.73455 0.3734 -10.4922 12.6407 -1.50718e-006 0.0165028 -1.2599e-005 
1.95619 91.333 3.26174 2.772 10.9821 -2.85434 0 9.9235 -1.2273 0.817321 3.13975 0.619714 -0.0001 11.6454 -1.4223 0.621903 6.37436 1.65056 0.0001 13.3602 -1.6265 0.619041 6.37099 1.66502 0 15.0325 0.7929 -1.95994 -3.56423 -1.06248 8.88178e-016 10.3218 3.1424 -7.06838 -11.0462 -0.621361 0.0002 18.4747 6.6364 2.98177e-016 1.59028e-015 7.95139e-016 2.9479 7.6817 9.1207 2.98177e-016 1.59028e-015 7.95139e-016 -2.9445 7.6817 9.1205 2.98177e-016 1.59028e-015 7.95139e-016 6.1058 9.1104 0.7056 -11.6391 0.179925 2.61818 12.655 -0.2659 -2.6009 -37.5163 42.8166 -50.2481 27.4047 -7.10543e-015 -1.77636e-015 2.68909e-005 2.52908e-007 -10.7588 27.6145 7.10543e-015 -2.66454e-015 -5.26838 -13.7774 -4.79341 12.7755 0 -3.55271e-015 0.0159763 -9.03612e-007 -0.00192795 3.614 0 0 -0.0160092 1.08658e-005 0.00194314 3.4598 0 0 -1.92623e-006 -1.30386e-005 1.46072e-005 3.7888 -2.167 3.0031 17.3887 3.38498 5.98719 3.6754 -2.122 2.122 1.59356 5.61382 21.0817 3.3944 -1.9597 1.9598 3.14971 0.475236 8.1848 12.2666 -0.2317 2.8221 -3.66684e-006 2.95452e-006 9.49118e-006 3.892 -7.10543e-015 3.55271e-015 -3.69419e-005 -2.23093e-006 -8.42047e-006 3.4152 0 0 -2.16977e-006 -3.06123e-006 3.64063e-006 12.147 0.0099 -2.2166 -3.66684e-006 2.95452e-006 9.49118e-006 3.6012 0 -3.55271e-015 -3.24844e-005 -7.71646e-006 6.05701e-006 3.3073 0 0 -2.09109e-006 2.07194e-006 4.8136e-006 10.9082 -0.2264 -4.7258 0.509568 0.0180318 4.05429 4.1367 0 0 -0.509594 0.0180344 -4.05428 2.5948 0 -1.77636e-015 -1.60766e-006 -3.95716e-007 3.02371e-006 -6.1057 9.1105 0.7056 9.94019 0.308346 -1.7193 -12.655 -0.266 -2.6009 -6.41676 32.3641 92.2012 -27.4047 1.42109e-014 8.88178e-016 1.43782e-005 1.46364e-005 96.8864 -27.6145 0 0 25.4638 -36.4655 -1.35294 -12.7755 0 0 30.3361 -0.956511 -3.52738 -3.614 0 0 22.0435 -0.510462 -2.62038 -3.4598 0 0 11.0246 -0.128869 -1.3348 -3.7888 -2.167 3.0031 -12.6474 -9.88241 -3.99696 -3.6754 -2.122 2.122 -3.47198 -1.14869 -26.5434 -3.3944 -1.9597 1.9598 -3.52349 -4.09633 -9.09948 -12.2666 -0.2317 2.8221 30.3361 -0.956511 -3.52738 -3.892 0 0 22.0435 -0.510462 -2.62038 -3.4152 3.55271e-015 1.42109e-014 11.0246 -0.128869 -1.3348 -12.147 0.0099 -2.2166 30.3361 -0.956511 -3.52738 -3.6012 -3.55271e-015 1.42109e-014 22.0435 -0.510462 -2.62038 -3.3073 3.55271e-015 1.42109e-014 11.0246 -0.128869 -1.3348 -10.9082 -0.2264 -4.7258 30.3361 -0.956511 -3.52738 -4.1367 -7.10543e-015 0 22.0435 -0.510462 -2.62038 -2.5948 3.55271e-015 0 11.0246 -0.128869 -1.3348 -9.1245 -6.6564 -0.0554 -8.36613 0.722139 -14.7879 -0.2447 -40.5954 -0.5145 0.631561 34.7284 9.46312 0.2447 -42.0479 -2.0602 -5.79921 3.24242 2.49002 -0.3734 -10.4922 12.6407 5.33167 -45.4064 3.03845 9.1245 -6.6564 -0.0554 -5.60468 -50.1735 -0.730507 0.2447 -40.5954 -0.517 0.612944 29.523 9.22699 -0.2447 -42.048 -2.0576 4.29429 -3.61842 1.96936 0.3734 -10.4922 12.6407 1.62825e-006 -0.054185 -7.79733e-006 
2.31604 90.8631 6.19746 3.56863 10.4182 -3.3353 0 9.9235 -1.2273 0.409742 3.27218 0.564639 -0.0001 11.6454 -1.4223 0.389132 6.56762 1.62143 0.0001 13.3602 -1.6265 0.388123 6.56509 1.63243 -1.77636e-015 15.0325 0.7929 -2.14401 -3.51426 -0.983055 0 10.3218 3.1424 -6.9588 -11.0751 -0.413771 0.0002 18.4747 6.6364 -9.93923e-016 -1.59028e-015 -0 2.9479 7.6817 9.1207 -9.93923e-016 -1.59028e-015 -0 -2.9445 7.6817 9.1205 -9.93923e-016 -1.59028e-015 -0 6.1058 9.1104 0.7056 -11.6918 0.167042 2.68704 12.655 -0.2659 -2.6009 -37.4598 42.6335 -50.7205 27.4047 0 0 8.68827e-006 -3.30104e-006 -10.045 27.6145 1.42109e-014 1.77636e-015 -5.16339 -13.7223 -5.10172 12.7755 0 3.55271e-015 0.0159763 -9.03612e-007 -0.00192795 3.614 0 3.55271e-015 -0.0160092 1.08658e-005 0.00194314 3.4598 0 0 -1.92623e-006 -1.30386e-005 1.46072e-005 3.7888 -2.167 3.0031 17.3887 3.38498 5.98719 3.6754 -2.122 2.122 1.59356 5.61382 21.0817 3.3944 -1.9597 1.9598 3.14971 0.475236 8.1848 12.2666 -0.2317 2.8221 -3.66684e-006 2.95452e-006 9.49118e-006 3.892 0 3.55271e-015 -3.69419e-005 -2.23093e-006 -8.42047e-006 3.4152 0 3.55271e-015 -2.16977e-006 -3.06123e-006 3.64063e-006 12.147 0.0099 -2.2166 -3.66684e-006 2.95452e-006 9.49118e-006 3.6012 0 0 -3.24844e-005 -7.71646e-006 6.05701e-006 3.3073 0 -3.55271e-015 -2.09109e-006 2.07194e-006 4.8136e-006 10.9082 -0.2264 -4.7258 0.509568 0.0180318 4.05429 4.1367 0 1.77636e-015 -0.509594 0.0180344 -4.05428 2.5948 0 0 -1.60766e-006 -3.95716e-007 3.02371e-006 -6.1057 9.1105 0.7056 9.93017 0.327086 -1.60902 -12.655 -0.266 -2.6009 -6.3246 32.2278 91.9539 -27.4047 0 8.88178e-016 5.58225e-007 -9.21232e-006 96.9353 -27.6145 0 0 25.4048 -36.5535 -1.11863 -12.7755 0 -1.42109e-014 30.3361 -0.956511 -3.52738 -3.614 3.55271e-015 0 22.0435 -0.510449 -2.62038 -3.4598 0 0 11.0246 -0.128827 -1.33481 -3.7888 -2.167 3.0031 -12.6474 -9.88241 -3.99696 -3.6754 -2.122 2.122 -3.47198 -1.14869 -26.5434 -3.3944 -1.9597 1.9598 -3.52349 -4.09633 -9.09948 -12.2666 -0.2317 2.8221 30.3361 -0.956511 -3.52738 -3.892 0 0 22.0435 -0.510449 -2.62038 -3.4152 -3.55271e-015 0 11.0246 -0.128827 -1.33481 -12.147 0.0099 -2.2166 30.3361 -0.956511 -3.52738 -3.6012 3.55271e-015 1.42109e-014 22.0435 -0.510449 -2.62038 -3.3073 0 1.42109e-014 11.0246 -0.128827 -1.33481 -10.9082 -0.2264 -4.7258 30.3361 -0.956511 -3.52738 -4.1367 0 0 22.0435 -0.510449 -2.62038 -2.5948 0 1.42109e-014 11.0246 -0.128827 -1.33481 -9.1245 -6.6564 -0.0554 -10.5726 -0.710763 -14.3183 -0.2447 -40.5954 -0.5145 0.659935 39.6524 9.3258 0.2447 -42.0479 -2.0602 -3.63698 9.17448 2.59089 -0.3734 -10.4922 12.6407 3.71926 -48.7218 2.22387 9.1245 -6.6564 -0.0554 -6.74723 -49.8405 -1.50057 0.2447 -40.5954 -0.517 0.666954 32.3725 9.62047 -0.2447 -42.048 -2.0576 3.59818 -0.29701 2.15881 0.3734 -10.4922 12.6407 9.88176e-008 -0.102648 -6.79971e-006 
2.61319 90.3732 9.04578 4.37979 9.87109 -3.67224 1.77636e-015 9.9235 -1.2273 -0.029072 3.40361 0.519097 -0.0001 11.6454 -1.4223 0.18043 6.76683 1.56194 0.0001 13.3602 -1.6265 0.180969 6.76515 1.5696 1.77636e-015 15.0325 0.7929 -2.33157 -3.46729 -0.910597 0 10.3218 3.1424 -6.8338 -11.1375 -0.248986 0.0002 18.4747 6.6364 7.95139e-016 0 3.97569e-016 2.9479 7.6817 9.1207 7.95139e-016 0 3.97569e-016 -2.9445 7.6817 9.1205 7.95139e-016 0 3.97569e-016 6.1058 9.1104 0.7056 -11.7198 0.156997 2.73938 12.655 -0.2659 -2.6009 -37.4787 42.4313 -51.0987 27.4047 7.10543e-015 -1.77636e-015 -5.51233e-007 7.50808e-006 -9.43719 27.6145 0 -1.77636e-015 -4.92638 -13.522 -5.36917 12.7755 0 3.55271e-015 0.0159763 -9.03612e-007 -0.00192795 3.614 7.10543e-015 0 -0.0160092 1.08658e-005 0.00194314 3.4598 0 -3.55271e-015 -1.92623e-006 -1.30386e-005 1.46072e-005 3.7888 -2.167 3.0031 17.3887 3.38498 5.98719 3.6754 -2.122 2.122 1.59356 5.61382 21.0817 3.3944 -1.9597 1.9598 3.14971 0.475236 8.1848 12.2666 -0.2317 2.8221 -3.66684e-006 2.95452e-006 9.49118e-006 3.892 0 0 -3.69419e-005 -2.23093e-006 -8.42047e-006 3.4152 -7.10543e-015 0 -2.16977e-006 -3.06123e-006 3.64063e-006 12.147 0.0099 -2.2166 -3.66684e-006 2.95452e-006 9.49118e-006 3.6012 0 0 -3.24844e-005 -7.71646e-006 6.05701e-006 3.3073 0 0 -2.09109e-006 2.07194e-006 4.8136e-006 10.9082 -0.2264 -4.7258 0.509568 0.0180318 4.05429 4.1367 0 0 -0.509594 0.0180344 -4.05428 2.5948 7.10543e-015 -3.55271e-015 -1.60766e-006 -3.95716e-007 3.02371e-006 -6.1057 9.1105 0.7056 9.92887 0.33974 -1.53601 -12.655 -0.266 -2.6009 -6.22784 32.0826 91.7208 -27.4047 1.42109e-014 0 3.08552e-005 -5.54972e-006 96.9634 -27.6145 0 0 25.3372 -36.6556 -0.869435 -12.7755 3.55271e-015 -1.42109e-014 30.3361 -0.956511 -3.52738 -3.614 0 1.42109e-014 22.0435 -0.510439 -2.6204 -3.4598 0 0 11.0246 -0.128817 -1.33483 -3.7888 -2.167 3.0031 -12.6474 -9.88241 -3.99696 -3.6754 -2.122 2.122 -3.47198 -1.14869 -26.5434 -3.3944 -1.9597 1.9598 -3.52349 -4.09633 -9.09948 -12.2666 -0.2317 2.8221 30.3361 -0.956511 -3.52738 -3.892 3.55271e-015 1.42109e-014 22.0435 -0.510439 -2.6204 -3.4152 3.55271e-015 -1.42109e-014 11.0246 -0.128817 -1.33483 -12.147 0.0099 -2.2166 30.3361 -0.956511 -3.52738 -3.6012 -3.55271e-015 1.42109e-014 22.0435 -0.510439 -2.6204 -3.3073 0 0 11.0246 -0.128817 -1.33483 -10.9082 -0.2264 -4.7258 30.3361 -0.956511 -3.52738 -4.1367 0 0 22.0435 -0.510439 -2.6204 -2.5948 3.55271e-015 0 11.0246 -0.128817 -1.33483 -9.1245 -6.6564 -0.0554 -12.6224 -2.54204 -13.4847 -0.2447 -40.5954 -0.5145 0.68134 44.7519 9.14581 0.2447 -42.0479 -2.0602 -0.555032 15.0624 1.82583 -0.3734 -10.4922 12.6407 2.04935 -49.6675 1.22108 9.1245 -6.6564 -0.0554 -7.96013 -49.3559 -2.21503 0.2447 -40.5954 -0.517 0.702991 35.0726 9.69704 -0.2447 -42.048 -2.0576 2.91703 1.82953 2.32833 0.3734 -10.4922 12.6407 1.26832e-006 -0.109672 -1.45796e-006 
